<svg xmlns="http://www.w3.org/2000/svg" width="852" height="380" viewBox="0 0 852 380" shape-rendering="crispEdges">
<defs>
  <linearGradient id="parch" x1="0" y1="0" x2="0" y2="1"><stop offset="0" stop-color="#ead39b"/><stop offset="1" stop-color="#cba76f"/></linearGradient>
  <linearGradient id="row" x1="0" y1="0" x2="1" y2="0"><stop offset="0" stop-color="#113b55"/><stop offset="1" stop-color="#082b42"/></linearGradient>
  <pattern id="grain" width="18" height="18" patternUnits="userSpaceOnUse"><rect width="18" height="18" fill="none"/><rect x="3" y="5" width="2" height="1" fill="#fff0bf" opacity=".2"/><rect x="13" y="12" width="2" height="1" fill="#6d4e2f" opacity=".16"/></pattern>
</defs>
<rect width="852" height="380" fill="#071d2d"/>
<rect x="18" y="15" width="816" height="350" fill="url(#parch)" stroke="#4d321f" stroke-width="8"/>
<rect x="28" y="25" width="796" height="330" fill="url(#grain)" opacity=".75"/>
<g fill="#2e6038"><rect x="12" y="28" width="9" height="84"/><rect x="20" y="36" width="26" height="8"/><rect x="12" y="276" width="9" height="73"/><rect x="20" y="321" width="28" height="8"/><rect x="831" y="33" width="9" height="86"/><rect x="808" y="41" width="28" height="8"/><rect x="831" y="271" width="9" height="72"/><rect x="808" y="317" width="28" height="8"/></g>
<!-- vector trophy, no emoji glyph -->
<g fill="none" stroke="#7a4c24" stroke-width="5"><path d="M67 40h40v17c0 20-8 31-20 31s-20-11-20-31z"/><path d="M67 48H54v11c0 12 7 19 18 19M107 48h13v11c0 12-7 19-18 19"/><path d="M87 88v12M70 100h34"/></g>
<text x="128" y="70" font-family="monospace" font-size="28" font-weight="900" fill="#2e2218">Friends League</text>
<text x="644" y="70" font-family="monospace" font-size="20" font-weight="700" fill="#3e3025">THIS WEEK'S XP</text>
<g>
<rect x="62" y="91" width="728" height="58" fill="url(#row)" stroke="#d8b16f" stroke-width="3"/>
<rect x="62" y="157" width="728" height="58" fill="url(#row)" stroke="#d8b16f" stroke-width="3"/>
<rect x="62" y="223" width="728" height="58" fill="url(#row)" stroke="#d8b16f" stroke-width="3"/>
<rect x="62" y="289" width="728" height="58" fill="url(#row)" stroke="#d8b16f" stroke-width="3"/>
</g>
<g font-family="monospace" font-weight="900" font-size="24" text-anchor="middle"><rect x="72" y="98" width="52" height="44" fill="#d5a354" stroke="#5a3b22" stroke-width="4"/><text x="98" y="128" fill="#2c2118">1</text><rect x="72" y="164" width="52" height="44" fill="#8a9aa1" stroke="#475864" stroke-width="4"/><text x="98" y="194" fill="#1e2931">2</text><rect x="72" y="230" width="52" height="44" fill="#8a9aa1" stroke="#475864" stroke-width="4"/><text x="98" y="260" fill="#1e2931">3</text><rect x="72" y="296" width="52" height="44" fill="#8a9aa1" stroke="#475864" stroke-width="4"/><text x="98" y="326" fill="#1e2931">4</text></g>
<g><rect x="143" y="98" width="52" height="44" fill="#12364c" stroke="#d5a354" stroke-width="4"/><rect x="143" y="164" width="52" height="44" fill="#102d41" stroke="#7895a4" stroke-width="3" stroke-dasharray="7 5"/><rect x="143" y="230" width="52" height="44" fill="#102d41" stroke="#7895a4" stroke-width="3" stroke-dasharray="7 5"/><rect x="143" y="296" width="52" height="44" fill="#102d41" stroke="#7895a4" stroke-width="3" stroke-dasharray="7 5"/></g>
<g fill="#2b1c18"><rect x="156" y="108" width="26" height="19"/><rect x="151" y="113" width="36" height="13"/></g><rect x="158" y="123" width="23" height="14" fill="#c99572"/>
<g stroke="#7895a4" stroke-width="4"><path d="M169 175v22M158 186h22M169 241v22M158 252h22M169 307v22M158 318h22"/></g>
</svg>